<svg width="300" height="300" xmlns="http://www.w3.org/2000/svg">
 <g id="Layer_1">
  <title>Layer 1</title>
  <path stroke="null" id="svg_4" d="m92.34697,98.76308l103.86166,0c10.85918,0 19.69428,8.04651 19.69428,17.93999l0,57.89938c0,9.87118 -8.79663,17.90495 -19.62434,17.93999l0,26.27402l-41.45111,-26.27402l-62.4805,0c-10.85918,0 -19.69428,-8.04811 -19.69428,-17.93999l0,-57.89938c0,-9.89348 8.83511,-17.93999 19.69428,-17.93999zm-11.30072,75.83937c0,5.67549 5.06937,10.29409 11.30072,10.29409l65.11398,0l30.42406,19.28519l0,-19.28519l8.32362,0c6.23135,0 11.30072,-4.6186 11.30072,-10.29409l0,-57.89938c0,-5.67708 -5.06937,-10.29409 -11.30072,-10.29409l-103.86166,0c-6.23135,0 -11.30072,4.61701 -11.30072,10.29409l0,57.89938zm0,0"/>
 </g>

</svg>