<svg width="511" height="511.99937" xmlns="http://www.w3.org/2000/svg">
 <g stroke="null">
  <title>Layer 1</title>
  <g transform="rotate(9.55861 40.6663 423.254)" id="svg_24" stroke="null">
   <path transform="rotate(45 40.6663 423.254)" id="svg_18" fill="#000000" d="m29.08334,385.53171c10.93958,-3.35908 22.5293,2.78569 25.88838,13.72527l11.00279,35.83018c3.35908,10.93959 -2.78568,22.52931 -13.72527,25.88839s-22.5293,-2.78568 -25.88838,-13.72527l-11.00279,-35.83018c-3.35908,-10.93958 2.78568,-22.52931 13.72527,-25.88839zm0,0" stroke="null"/>
   <path transform="rotate(45 37.6869 428.87)" id="svg_23" fill="#c64a37" d="m32.5587,412.16887c4.84333,-1.48718 9.97451,1.23332 11.46169,6.07666l4.87132,15.86327c1.48718,4.84334 -1.23332,9.97451 -6.07666,11.46169s-9.97451,-1.23332 -11.46169,-6.07666l-4.87132,-15.86327c-1.48718,-4.84333 1.23332,-9.97451 6.07666,-11.46169zm0,0" stroke="null"/>
  </g>
  <path id="svg_1" fill="#c74b36" d="m331.51172,250.60938c-1.23047,-9.82422 5.73047,-18.78907 15.55469,-20.02344l32.17578,-4.03906c9.82422,-1.23438 18.78515,5.73046 20.01953,15.55468c1.23437,9.82032 -5.73047,18.78516 -15.55078,20.01953l-32.17969,4.03907c-9.82031,1.23437 -18.78516,-5.72657 -20.01953,-15.55078zm0,0" stroke="null"/>
  <path id="svg_2" fill="#c74b36" d="m199.32813,438.43359c9.46484,-2.90625 19.49218,2.41016 22.39843,11.875l9.51953,31c2.90625,9.46485 -2.41015,19.49219 -11.875,22.39844s-19.49218,-2.41015 -22.39843,-11.875l-9.51953,-31c-2.90625,-9.46484 2.41015,-19.49219 11.875,-22.39844zm0,0" stroke="null"/>
  <path id="svg_3" fill="#ffe0b7" d="m264.375,15.98047s-133.76953,-44.53125 -168.94531,70.45312c-35.17969,114.98438 -204.81641,316.89063 51.95703,379.01563c256.76953,62.125 274.51953,-410.24219 116.98828,-449.46875zm0,0" stroke="null"/>
  <path id="svg_4" fill="#fdcb89" d="m160.92188,162.05859c-0.30469,-96.58593 67.73046,-153.33593 67.73046,-153.33593c-42.22265,-4.73047 -109.72656,0.89453 -133.22656,77.71093c-30.73828,100.47266 -164.13672,267.3125 -26.00781,349.27344c78.66406,-64.5 91.76172,-192.20312 91.50391,-273.64844zm0,0" stroke="null"/>
  <g id="svg_5" fill="#fc8978" stroke="null">
   <path id="svg_6" d="m160.92188,352.55078c0,20.95313 -16.98438,37.9375 -37.9375,37.9375s-37.94141,-16.98437 -37.94141,-37.9375s16.98828,-37.9414 37.94141,-37.9414s37.9375,16.98828 37.9375,37.9414zm0,0" stroke="null"/>
   <path id="svg_7" d="m236.11328,253.46484c0,13.65625 -11.07031,24.72657 -24.72656,24.72657s-24.72656,-11.07032 -24.72656,-24.72657s11.07031,-24.72656 24.72656,-24.72656s24.72656,11.07031 24.72656,24.72656zm0,0" stroke="null"/>
   <path id="svg_8" d="m355.39453,309.60156c-10.02734,-8.92968 -23.24219,-14.37109 -37.72656,-14.37109c-31.33594,0 -56.73828,25.40625 -56.73828,56.74219c0,29.38672 22.34375,53.55468 50.96484,56.44922c20.41797,-27.46094 34.82031,-61.85157 43.5,-98.82032zm0,0" stroke="null"/>
  </g>
  <path id="svg_9" fill="#c74b36" d="m89.22266,220.10938c-6.30078,7.63671 -17.59766,8.71875 -25.23438,2.41796l-35.99219,-29.70703c-7.63671,-6.30078 -8.71875,-17.60156 -2.41796,-25.23437c6.30468,-7.63672 17.60156,-8.71875 25.23828,-2.41797l35.99218,29.70703c7.63672,6.30078 8.71875,17.60156 2.41407,25.23438zm0,0" stroke="null"/>
  <path id="svg_10" fill="#ff83b4" d="m147.60156,118.30469c-11.28125,-1.63672 -21.48437,4.32031 -22.78906,13.30469c-1.30078,8.98437 6.78516,17.59375 18.06641,19.23046c11.28125,1.63672 21.48437,-4.32031 22.78906,-13.30468c1.30078,-8.98047 -6.78516,-17.58985 -18.06641,-19.23047zm0,0" stroke="null"/>
  <path id="svg_11" fill="#ff83b4" d="m298.92969,140.27344c-11.28125,-1.63672 -21.48438,4.32031 -22.78906,13.30469c-1.30079,8.98046 6.78515,17.58984 18.0664,19.23046c11.28125,1.63672 21.48438,-4.32031 22.78906,-13.30468c1.30079,-8.98438 -6.78515,-17.59375 -18.0664,-19.23047zm0,0" stroke="null"/>
  <path id="svg_14" d="m220.91406,145.55078c7.06641,1.02735 14.10938,-1.55078 18.84766,-6.89453c2.74609,-3.09766 2.46094,-7.83984 -0.63672,-10.58594c-1.13672,-1.00781 -6.38281,-3.94922 -10.58984,0.63672c-2.01563,2.19922 -4.48047,2.14453 -5.46485,2c-0.98437,-0.14062 -3.41015,-0.76562 -4.67187,-3.46875c-1.75391,-3.7539 -6.21875,-5.375 -9.96875,-3.62109c-3.75391,1.7539 -5.375,6.21484 -3.6211,9.96875c3.01954,6.46875 9.04297,10.9414 16.10547,11.96484zm0,0" stroke="null"/>
  <path id="svg_15" d="m77.54297,352.55078c0,25.05469 20.38672,45.4375 45.44141,45.4375s45.4375,-20.38281 45.4375,-45.4375c0,-25.05469 -20.38282,-45.4414 -45.4375,-45.4414s-45.44141,20.38671 -45.44141,45.4414zm75.88281,0c0,16.78125 -13.65625,30.4375 -30.4414,30.4375s-30.4375,-13.65625 -30.4375,-30.4375c0,-16.78515 13.65234,-30.4414 30.4375,-30.4414s30.4414,13.65625 30.4414,30.4414zm0,0" stroke="null"/>
  <path id="svg_16" d="m179.16016,253.46484c0,17.76954 14.45703,32.22657 32.22656,32.22657s32.22656,-14.45703 32.22656,-32.22657c0,-17.76953 -14.45703,-32.22656 -32.22656,-32.22656s-32.22656,14.45703 -32.22656,32.22656zm32.22656,-17.22656c9.49609,0 17.22656,7.73047 17.22656,17.22656c0,9.5 -7.73047,17.22657 -17.22656,17.22657c-9.5,0 -17.22656,-7.72657 -17.22656,-17.22657c0,-9.49609 7.72656,-17.22656 17.22656,-17.22656zm0,0" stroke="null"/>
  <path id="svg_17" d="m407.70313,242.16406c-1.7461,-13.91015 -14.48438,-23.8125 -28.39454,-22.05859l-5.4375,0.68359c-0.36718,-99.1914 -36.89843,-193.48828 -106.41796,-211.01953c-2.8086,-0.90625 -23.78516,-7.41406 -50.9375,-8.58984c-38.45704,-1.66406 -70.875,8.33984 -93.7461,28.94531c-3.07812,2.77344 -3.32422,7.51563 -0.55078,10.59375c2.77344,3.07422 7.51563,3.32422 10.59375,0.55078c20.08984,-18.10547 47.89063,-26.55469 82.66797,-25.12109c26.56641,1.09765 47.32812,7.88281 47.52734,7.94922c0.1836,0.05859 0.36719,0.11328 0.55469,0.16015c37.73047,9.39453 67.37891,46.80469 83.48438,105.33594c14.01562,50.92969 15.53125,112.72656 4.44531,168.17188c-9.86719,-5.8711 -21.17969,-9.03125 -32.82422,-9.03125c-35.42188,0 -64.23828,28.8164 -64.23828,64.23828c0,18.82812 8.21875,36.64062 22.55078,48.875c4.55859,3.89062 9.08984,0.90234 10.57031,-0.83594c2.69141,-3.14844 2.31641,-7.88281 -0.83203,-10.57422c-10.98828,-9.37891 -17.28906,-23.03516 -17.28906,-37.46484c0,-27.14844 22.08984,-49.23828 49.23828,-49.23828c10.60937,0 20.86328,3.41406 29.32031,9.6914c-12.92578,51.86719 -36.0039,93.05469 -66.79297,119.15625c-25.14844,21.31641 -54.60547,32.01953 -87.95312,32.01953c-13.71485,0 -28.09375,-1.8164 -43.09375,-5.4414c-65.14453,-15.76172 -105.44922,-40.97266 -123.21875,-77.0625c-13.3125,-27.04297 -21.13672,-67.65235 20.32812,-163.48047l12.95703,10.69531c17.21485,11.83594 30.77344,2.65625 35.79297,-3.42578c0,0 16.77735,-19.4375 -3.42578,-35.79688l-23.34766,-19.26953l0.07032,-0.14453c13.83203,-29.24609 26.89843,-56.87109 34.29687,-81.04687c3.00391,-9.82032 6.89844,-18.79297 11.57813,-26.66407c2.11328,-3.5625 0.9414,-8.16406 -2.61719,-10.28125c-3.5625,-2.11718 -8.16406,-0.9414 -10.28125,2.61719c-5.28906,8.90235 -9.67188,18.97266 -13.02734,29.9375c-6.80469,22.25391 -18.94532,48.21485 -31.95313,75.73438c0,0 -20.88672,-15.62891 -36.50391,2.83593c-13.78125,16.29297 -1.8125,31.47266 3.42579,35.79688l10.99609,9.07812c-26.00391,58.98047 -48.31641,126.0625 -21.74609,180.03516c19.85546,40.33594 63.40625,68.14453 133.14843,85.01953c13.50782,3.26563 26.65625,5.14063 39.37891,5.65625l4.80078,15.63672c3.35547,10.92969 13.44531,17.96875 24.32031,17.96875c20.78125,0 28.40625,-19.48828 24.29297,-32.89453l-2.09375,-6.8125c19.48047,-5.80859 37.23828,-15.89063 53.57422,-29.26953c67.72266,-55.46875 78.22656,-158.19141 79.89063,-171.59375l14.85546,-1.86719c13.91407,-1.74609 23.8086,-14.48437 22.0625,-28.39844l0.00001,0zm-375.33985,-68.80468c4.80078,-6.16797 12.79297,-2.96094 14.67969,-1.40625l35.99219,29.70703c2.14843,1.77343 6.70703,7.40234 1.40625,14.67578c0,0 -6.14454,7.98828 -14.67969,1.40625l-35.99219,-29.70703c-2.14844,-1.77344 -6.20312,-8.51172 -1.40625,-14.67578zm185.80469,324.17968c-5.4961,1.6836 -11.33985,-1.41406 -13.02344,-6.91015l-3.46875,-11.28907c7.17578,-0.36718 14.19531,-1.20312 21.04688,-2.5l2.35546,7.66797c1.6875,5.4961 -1.41406,11.34375 -6.91015,13.03125zm165.60547,-241.85937l-11.38282,1.42969c0.60547,-7.05079 1.02735,-14.11329 1.26172,-21.17579l7.52344,-0.94531c5.70313,-0.71484 10.92578,3.34375 11.64453,9.04688c0.71485,5.70312 -3.33984,10.92578 -9.04687,11.64453zm0,0" stroke="null"/>
  <path id="svg_20" d="m237,473.49969" opacity="NaN" stroke="null"/>
  <path id="svg_22" d="m196.00002,490.49206" opacity="NaN" stroke="null"/>
 </g>

</svg>